<?xml version="1.0" encoding="utf-8"?>
<!-- Generator: Adobe Illustrator 16.0.0, SVG Export Plug-In . SVG Version: 6.00 Build 0)  -->
<!DOCTYPE svg PUBLIC "-//W3C//DTD SVG 1.1//EN" "http://www.w3.org/Graphics/SVG/1.1/DTD/svg11.dtd">
<svg version="1.1" id="Layer_1" xmlns="http://www.w3.org/2000/svg" xmlns:xlink="http://www.w3.org/1999/xlink" x="0px" y="0px"
	 width="56px" height="28.75px" viewBox="0 0 56 28.75" enable-background="new 0 0 56 28.75" xml:space="preserve">
<g>
	<path fill="#FFFFFF" d="M3.155,20.908v0.439c0,0.358,0.089,0.667,0.269,0.928c0.407,0.603,1.074,0.903,2.002,0.903
		c2.034,0,4.386-1.563,7.056-4.688c0.472-0.537,0.871-0.806,1.196-0.806c0.179,0,0.342,0.09,0.488,0.269
		c0.098,0.13,0.146,0.252,0.146,0.366c0,0.635-0.781,1.709-2.344,3.223c-1.221,1.188-2.523,2.157-3.906,2.905
		c-1.384,0.749-2.669,1.123-3.857,1.123c-1.221,0-2.181-0.423-2.881-1.27c-0.472-0.586-0.708-1.383-0.708-2.393
		c0-2.75,1.294-5.444,3.882-8.081c2.1-2.148,3.931-3.223,5.493-3.223c0.423,0,0.806,0.13,1.147,0.391
		c0.423,0.342,0.635,0.79,0.635,1.343c0,0.863-0.399,1.921-1.196,3.174C8.933,18.117,6.458,19.916,3.155,20.908z M3.692,19.004
		c1.139-0.391,2.034-0.83,2.686-1.318c1.139-0.879,2.042-1.872,2.71-2.979c0.244-0.391,0.366-0.74,0.366-1.05
		c0-0.325-0.155-0.488-0.464-0.488c-0.423,0-1.025,0.317-1.807,0.952C5.783,15.244,4.62,16.872,3.692,19.004z"/>
	<path fill="#FFFFFF" d="M19.17,17.466c1.367-1.432,2.571-2.555,3.613-3.369c1.579-1.221,2.637-1.831,3.174-1.831
		c0.26,0,0.488,0.098,0.684,0.293c0.179,0.179,0.269,0.375,0.269,0.586c0,0.31-0.285,0.814-0.854,1.514
		c-0.879,1.107-1.489,2.051-1.831,2.832c3.809-3.825,6.413-5.737,7.813-5.737c0.293,0,0.545,0.09,0.757,0.269
		c0.228,0.195,0.342,0.439,0.342,0.732c0,0.456-0.35,1.042-1.05,1.758c-3.076,3.174-4.614,5.778-4.614,7.813
		c0,0.83,0.146,1.424,0.439,1.782l0.635,0.806c0.13,0.146,0.195,0.334,0.195,0.562c0,0.261-0.106,0.505-0.317,0.732
		c-0.244,0.261-0.521,0.391-0.83,0.391c-0.537,0-1.034-0.342-1.489-1.025c-0.554-0.813-0.83-1.774-0.83-2.881
		c0-1.481,0.423-2.979,1.27-4.492c0.293-0.537,0.781-1.253,1.465-2.148c-1.384,1.042-2.792,2.474-4.224,4.297
		c-0.977,1.237-1.855,2.621-2.637,4.15c-0.375,0.732-0.814,1.099-1.318,1.099c-0.554,0-0.83-0.309-0.83-0.928
		c0-0.667,0.456-2.042,1.367-4.126c0.521-1.188,1.164-2.441,1.929-3.76c-2.783,2.148-4.875,5.062-6.274,8.74
		c-0.342,0.814-0.797,1.221-1.367,1.221c-0.26,0-0.472-0.098-0.635-0.293c-0.179-0.195-0.269-0.431-0.269-0.708
		c0-0.96,0.537-2.693,1.611-5.2c1.123-2.653,2.393-5.037,3.809-7.153c0.977-1.481,1.733-2.222,2.271-2.222
		c0.488,0,0.732,0.261,0.732,0.781c0,0.228-0.301,0.798-0.903,1.709C20.212,15.366,19.512,16.636,19.17,17.466z"/>
	<path fill="#FFFFFF" d="M39.117,10.972c0.276,0,0.504,0.106,0.684,0.317c0.13,0.179,0.195,0.358,0.195,0.537
		c0,0.293-0.236,0.781-0.708,1.465c-1.693,2.621-2.897,4.777-3.613,6.47c-0.765,1.742-1.44,3.532-2.026,5.371
		c-0.26,0.814-0.667,1.221-1.221,1.221c-0.325,0-0.586-0.13-0.781-0.391c-0.179-0.211-0.269-0.439-0.269-0.684
		c0-0.488,0.521-2.116,1.563-4.883c0.814-2.181,2.132-4.59,3.955-7.227c0.586-0.862,1.025-1.44,1.318-1.733
		C38.506,11.126,38.807,10.972,39.117,10.972z M43.755,1.914c0.732,0,1.099,0.375,1.099,1.123c0,0.684-0.358,1.44-1.074,2.271
		c-0.684,0.798-1.343,1.196-1.978,1.196c-0.31,0-0.562-0.114-0.757-0.342c-0.195-0.211-0.293-0.472-0.293-0.781
		c0-0.781,0.431-1.611,1.294-2.49C42.681,2.24,43.25,1.914,43.755,1.914z"/>
	<path fill="#FFFFFF" d="M48.248,9.873c-1.058,1.644-2.035,3.483-2.93,5.518c-1.286,2.897-1.929,5.062-1.929,6.494
		c0,0.407,0.085,0.716,0.256,0.928c0.171,0.212,0.427,0.317,0.769,0.317c0.813,0,1.798-0.765,2.954-2.295
		c0.732-0.944,1.383-1.888,1.953-2.832c0.309-0.537,0.643-0.806,1.001-0.806c0.211,0,0.391,0.073,0.537,0.22
		c0.13,0.146,0.195,0.293,0.195,0.439c0,0.603-0.79,1.945-2.368,4.028c-1.888,2.507-3.613,3.76-5.176,3.76
		c-0.83,0-1.522-0.382-2.075-1.147c-0.342-0.488-0.513-1.18-0.513-2.075c0-1.969,0.569-4.264,1.709-6.885
		c0.276-0.651,1.042-2.222,2.295-4.712c-0.439,0.114-0.773,0.171-1.001,0.171c-0.342,0-0.643-0.081-0.903-0.244
		c-0.358-0.228-0.537-0.513-0.537-0.854c0-0.407,0.236-0.732,0.708-0.977C43.324,8.856,43.926,8.75,45,8.604
		c0.391-0.065,0.96-0.22,1.709-0.464c0.569-1.025,1.497-2.417,2.783-4.175c0.716-0.977,1.212-1.611,1.489-1.904
		c0.391-0.407,0.732-0.61,1.025-0.61c0.211,0,0.423,0.114,0.635,0.342c0.195,0.212,0.293,0.423,0.293,0.635
		c0,0.423-0.456,1.262-1.367,2.515c-0.603,0.814-1.05,1.473-1.343,1.978c1.807-0.488,3.101-0.732,3.882-0.732
		c0.895,0,1.343,0.375,1.343,1.123c0,0.375-0.155,0.651-0.464,0.83c-0.163,0.098-0.586,0.179-1.27,0.244
		c-0.277-0.016-1.506,0.293-3.687,0.928C49.427,9.491,48.833,9.678,48.248,9.873z"/>
</g>
</svg>
